<?xml version="1.0" encoding="UTF-8" standalone="no"?>
<svg
   xmlns:dc="http://purl.org/dc/elements/1.1/"
   xmlns:cc="http://creativecommons.org/ns#"
   xmlns:rdf="http://www.w3.org/1999/02/22-rdf-syntax-ns#"
   xmlns:svg="http://www.w3.org/2000/svg"
   xmlns="http://www.w3.org/2000/svg"
   xmlns:sodipodi="http://sodipodi.sourceforge.net/DTD/sodipodi-0.dtd"
   xmlns:inkscape="http://www.inkscape.org/namespaces/inkscape"
   viewBox="0 0 600 600"
   id="svg4243"
   version="1.1"
   inkscape:version="0.91 r13725"
   sodipodi:docname="M-mono.svg"
   inkscape:export-filename="/Users/michel/Dropbox/Graphics/micheldebree.nl/logo v1/M-mono.png"
   inkscape:export-xdpi="90"
   inkscape:export-ydpi="90"
   width="600"
   height="600">
  <metadata
     id="metadata4259">
    <rdf:RDF>
      <cc:Work
         rdf:about="">
        <dc:format>image/svg+xml</dc:format>
        <dc:type
           rdf:resource="http://purl.org/dc/dcmitype/StillImage" />
        <dc:title />
      </cc:Work>
    </rdf:RDF>
  </metadata>
  <defs
     id="defs4257" />
  <sodipodi:namedview
     pagecolor="#ffffff"
     bordercolor="#666666"
     borderopacity="1"
     objecttolerance="10"
     gridtolerance="10"
     guidetolerance="10"
     inkscape:pageopacity="0"
     inkscape:pageshadow="2"
     inkscape:window-width="1428"
     inkscape:window-height="809"
     id="namedview4255"
     showgrid="false"
     inkscape:zoom="0.72447432"
     inkscape:cx="78.577346"
     inkscape:cy="225.36291"
     inkscape:window-x="102"
     inkscape:window-y="118"
     inkscape:window-maximized="0"
     inkscape:current-layer="g4701" />
  <g
     id="g4701"
     transform="translate(0,30)">
    <circle
       style="opacity:0.99;fill:#c00020;fill-opacity:1;stroke:none;stroke-width:3;stroke-miterlimit:4;stroke-dasharray:none;stroke-opacity:1"
       id="path4880"
       cx="300"
       cy="270"
       r="299" />
    <path
       inkscape:connector-curvature="0"
       id="path4245"
       d="m 203.43248,44.999999 c -34.4775,19.090909 -68.95498,38.181819 -103.432483,57.272731 0,111.81818 0,223.63636 0,335.45454 33.257053,19.09092 66.514113,38.18182 99.771163,57.27273 0,-74.84848 0,-149.69697 0,-224.54546 33.56218,19.0909 67.12435,38.18183 100.6865,57.27273 0,36.66667 0,73.33333 0,110 33.25706,19.09092 66.51411,38.18182 99.77117,57.27273 0,-74.84848 0,-149.69697 0,-224.54546 -33.25706,18.48484 -66.51411,36.96971 -99.77117,55.45455 0,-37.27273 0,-74.54545 0,-111.81818 C 366.97178,176.81818 433.48588,139.54545 500,102.27273 466.74294,83.181818 433.48588,64.090908 400.22883,44.999999 366.97178,63.787879 333.71472,82.575757 300.45766,101.36364 268.11593,82.575757 235.77421,63.787879 203.43248,44.999999 Z"
       style="fill:#ffffff;fill-opacity:1" />
  </g>
</svg>
